# xmcd
#
# Track frame offsets:
#	150
#	18925
#	49662
#	78284
#	110446
#	134696
#	172783
#	199545
#
# Disc length: 2927 seconds
#
# Revision: 1
# Processed by: cddbd v1.4PL0 Copyright (c) Steve Scherf et al.
# Submitted via: audiograbber 1.82.01
#
DISCID=5b0b6d08
DTITLE=Saber El Rouba3i - Hayarouni
DYEAR=1900
DGENRE=
TTITLE0=Hayarouni
TTITLE1=Ah Min Hawak
TTITLE2=Homma Elli Nesyouna
TTITLE3=Ma Intahayna
TTITLE4=Kelma
TTITLE5=Atzakarak
TTITLE6=Hikaya 
TTITLE7=Min Ghayr Hilfan
EXTD=
EXTT0=
EXTT1=
EXTT2=
EXTT3=
EXTT4=
EXTT5=
EXTT6=
EXTT7=
PLAYORDER=
